<svg xmlns="http://www.w3.org/2000/svg" viewBox="0 0 512 512"><path d="M149.333 320h213.334a106.667 106.667 0 0 1 106.666 106.667H42.667A106.667 106.667 0 0 1 149.333 320z" transform="rotate(-180 256 373.333)" style="fill:#cc4900"/><path style="fill:#e76400" d="M320 320h128v42.667H320z"/><path d="M341.333 320H42.667a106.667 106.667 0 0 0 106.666 106.667h85.334A106.667 106.667 0 0 0 341.333 320z" style="fill:#ef7f00"/><path d="M362.667 426.667V384a64.012 64.012 0 0 0 61.979-48l41.312 10.667a106.68 106.68 0 0 1-103.291 80z" style="fill:#bf3c00"/><path style="fill:#f59707" d="M64 320h256v42.667H64z"/><path style="fill:#fdbc34" d="M256 384 64 298.667h384L256 384z"/><path transform="rotate(-23.962 326.87 340.828)" style="fill:#fdab00" d="M249.317 330.159h155.106v21.339H249.317z"/><rect x="42.667" y="234.667" width="426.667" height="85.333" rx="42.667" ry="42.667" style="fill:#8b2800"/><rect x="42.667" y="234.667" width="298.667" height="85.333" rx="42.667" ry="42.667" style="fill:#993b17"/><ellipse cx="266.667" cy="256" rx="96" ry="42.667" style="fill:#c11107"/><ellipse cx="352" cy="245.333" rx="96" ry="53.333" style="fill:#c82e25"/><ellipse cx="160" cy="234.667" rx="96" ry="42.667" style="fill:#c82e25"/><ellipse cx="352" cy="245.333" rx="74.667" ry="32" style="fill:#d2514a"/><path d="M64 234.667S64 256 106.667 256s42.666 21.333 64 21.333S192 256 234.667 256s38.515 21.333 61.924 21.333S320 256 362.667 256 448 256 448 213.333H64z" style="fill:#fee3aa"/><path d="M170.667 234.667a149.333 149.333 0 1 1 298.666 0z" style="fill:#ef7f00"/><ellipse cx="320" cy="128" rx="85.333" ry="42.667" style="fill:#e76400"/><path d="M352 320a182.843 182.843 0 0 1-40.75-4.573A217.406 217.406 0 0 1 266.667 320c-36.115 0-68.709-7.98-90.282-21.98-5.333.407-10.791.647-16.385.647-37.333 0-71.042-8.438-92.469-23.157l12.084-17.583c17.958 12.333 47.26 19.406 80.385 19.406 6.281 0 12.365-.333 18.281-.885l3.969-.365 3.23 2.323c25.364 18.219 78.489 25.709 123.551 15.677l2.438-.541 2.416.583A161.026 161.026 0 0 0 352 298.667c36.875 0 69.917-11.47 86.24-29.938l15.979 14.125C433.677 306.114 395.459 320 352 320z" style="fill:#7d1a00"/><path style="fill:#fdbc34" d="M362.667 192H448v42.667h-85.333z"/><path d="M42.667 234.667a149.333 149.333 0 1 1 298.666 0z" style="fill:#f59707"/><path style="fill:#fdcf6d" d="M64 192h256v42.667H64z"/><ellipse cx="192" cy="128" rx="85.333" ry="42.667" style="fill:#ef7f00"/><ellipse cx="128" cy="138.667" rx="21.333" ry="10.667" style="fill:#fee3aa"/><ellipse cx="192" cy="96" rx="21.333" ry="10.667" style="fill:#fee3aa"/><ellipse cx="256" cy="117.333" rx="21.333" ry="10.667" style="fill:#fee3aa"/><ellipse cx="362.667" cy="117.333" rx="21.333" ry="10.667" style="fill:#fdcf6d"/><ellipse cx="298.667" cy="96" rx="21.333" ry="10.667" style="fill:#fdcf6d"/></svg>