<svg width="14" height="15" viewBox="0 0 14 15" fill="none" xmlns="http://www.w3.org/2000/svg">
    <path d="M3.00415 13.7709C2.76498 13.7709 2.56665 13.5726 2.56665 13.3334V1.66675C2.56665 1.42758 2.76498 1.22925 3.00415 1.22925C3.24332 1.22925 3.44165 1.42758 3.44165 1.66675V13.3334C3.44165 13.5726 3.24332 13.7709 3.00415 13.7709Z" fill="white" fill-opacity="0.87"/>
    <path d="M9.53749 10.2708H3.00415C2.76498 10.2708 2.56665 10.0724 2.56665 9.83325C2.56665 9.59409 2.76498 9.39575 3.00415 9.39575H9.53749C10.1733 9.39575 10.4708 9.22659 10.5292 9.08075C10.5875 8.93492 10.5 8.60825 10.045 8.15909L9.34499 7.45909C9.05915 7.20825 8.88415 6.82909 8.86665 6.40909C8.84915 5.96575 9.02415 5.52825 9.34499 5.20742L10.045 4.50742C10.4767 4.07575 10.6108 3.72575 10.5467 3.57409C10.4825 3.42242 10.15 3.27075 9.53749 3.27075H3.00415C2.75915 3.27075 2.56665 3.07242 2.56665 2.83325C2.56665 2.59409 2.76498 2.39575 3.00415 2.39575H9.53749C10.815 2.39575 11.2233 2.92659 11.3575 3.24159C11.4858 3.55659 11.5733 4.22159 10.6633 5.13159L9.96332 5.83159C9.81749 5.97742 9.73582 6.18159 9.74165 6.38575C9.74749 6.56075 9.81749 6.71825 9.93999 6.82909L10.6633 7.54659C11.5558 8.43909 11.4683 9.10409 11.34 9.42492C11.2058 9.73409 10.7917 10.2708 9.53749 10.2708Z" fill="white" fill-opacity="0.87"/>
</svg>
