<?xml version="1.0" encoding="UTF-8" standalone="no"?> <svg width="48" height="48" viewBox="0 0 48 48" fill="none" xmlns="http://www.w3.org/2000/svg">
<path d="M24 45C35.598 45 45 35.598 45 24C45 12.402 35.598 3 24 3C12.402 3 3 12.402 3 24C3 35.598 12.402 45 24 45Z" fill="#EAEFF0"/>
<path d="M28 40.0002C23.9744 40.0044 20.0414 38.7924 16.7164 36.523C13.3913 34.2537 10.8294 31.0328 9.36632 27.2825C7.90322 23.5321 7.60718 19.4273 8.517 15.5058C9.42682 11.5843 11.5001 8.02914 14.465 5.30615C11.5127 6.80932 8.95801 8.99001 7.01007 11.6699C5.06212 14.3497 3.77618 17.4526 3.25744 20.7247C2.73869 23.9969 3.00187 27.3454 4.02545 30.4963C5.04903 33.6472 6.80393 36.5111 9.14663 38.8537C11.4893 41.1964 14.3533 42.9512 17.5042 43.9746C20.6552 44.9981 24.0037 45.2612 27.2758 44.7423C30.548 44.2234 33.6508 42.9374 36.3306 40.9893C39.0104 39.0413 41.191 36.4866 42.694 33.5342C40.8273 35.5722 38.5569 37.1996 36.0272 38.3128C33.4975 39.4259 30.7638 40.0006 28 40.0002Z" fill="#D9E1E2"/>
<path d="M22.8242 15.166L15.9742 20.144C15.6324 20.3922 15.378 20.7422 15.2474 21.1439C15.1168 21.5455 15.1167 21.9783 15.2472 22.38L17.8642 30.434C17.9946 30.8353 18.2486 31.1852 18.5899 31.4334C18.9311 31.6816 19.3422 31.8155 19.7642 31.816H28.2322C28.6542 31.8155 29.0652 31.6816 29.4065 31.4334C29.7478 31.1852 30.0018 30.8353 30.1322 30.434L32.7492 22.38C32.8796 21.9783 32.8796 21.5455 32.749 21.1439C32.6184 20.7422 32.364 20.3922 32.0222 20.144L25.1722 15.166C24.8308 14.9184 24.4199 14.7852 23.9982 14.7852C23.5765 14.7852 23.1656 14.9184 22.8242 15.166V15.166Z" fill="#2D4A60"/>
<path d="M30.2498 3.93999L25.1798 7.61999C24.8366 7.86867 24.4236 8.00257 23.9998 8.00257C23.5759 8.00257 23.163 7.86867 22.8198 7.61999L17.7598 3.93999C21.8288 2.68667 26.1808 2.68667 30.2498 3.93999V3.93999Z" fill="#2D4A60"/>
<path d="M8.05977 20.0601L3.00977 23.7301C3.04966 19.4838 4.38982 15.3516 6.84977 11.8901L8.77977 17.8201C8.91188 18.2217 8.91336 18.6548 8.78401 19.0572C8.65465 19.4597 8.4011 19.8108 8.05977 20.0601V20.0601Z" fill="#2D4A60"/>
<path d="M7.99977 20.0001C8.00515 18.8086 8.11659 17.6199 8.33277 16.4481L6.84977 11.8901C4.38982 15.3516 3.04966 19.4838 3.00977 23.7301L8.00977 20.1001C8.00477 20.0661 7.99977 20.0341 7.99977 20.0001Z" fill="#263F52"/>
<path d="M17.2502 43.8901C13.2246 42.5201 9.70742 39.9649 7.16016 36.5601H13.4202C13.8419 36.5604 14.2528 36.694 14.594 36.9418C14.9353 37.1897 15.1894 37.5391 15.3202 37.9401L17.2502 43.8901Z" fill="#263F52"/>
<path d="M40.84 36.5601C38.2927 39.9649 34.7755 42.5201 30.75 43.8901L32.68 37.9401C32.8107 37.5391 33.0649 37.1897 33.4061 36.9418C33.7474 36.694 34.1582 36.5604 34.58 36.5601H40.84Z" fill="#2D4A60"/>
<path d="M32.1539 39.5621L30.7539 43.8901C34.7794 42.5201 38.2966 39.9649 40.8439 36.5601H39.2149C37.0783 38.0094 34.6801 39.0291 32.1539 39.5621V39.5621Z" fill="#263F52"/>
<path d="M44.9898 23.7301L39.9398 20.0601C39.5985 19.8108 39.3449 19.4597 39.2156 19.0572C39.0862 18.6548 39.0877 18.2217 39.2198 17.8201L41.1498 11.8901C43.6098 15.3516 44.9499 19.4838 44.9898 23.7301V23.7301Z" fill="#2D4A60"/>
<path d="M24 2C19.6488 2 15.3953 3.29028 11.7775 5.70767C8.15958 8.12506 5.33979 11.561 3.67466 15.581C2.00953 19.6009 1.57386 24.0244 2.42273 28.292C3.27161 32.5596 5.36691 36.4796 8.44366 39.5564C11.5204 42.6331 15.4404 44.7284 19.708 45.5773C23.9756 46.4261 28.3991 45.9905 32.419 44.3253C36.439 42.6602 39.875 39.8404 42.2923 36.2225C44.7097 32.6047 46 28.3512 46 24C45.9934 18.1673 43.6734 12.5753 39.5491 8.45096C35.4247 4.32659 29.8327 2.00662 24 2V2ZM40.292 35.56H34.58C34.2914 35.5617 34.0044 35.6048 33.728 35.688L30.7 31.519C30.8665 31.2803 30.9972 31.0185 31.088 30.742L33.7 22.688C33.7862 22.4177 33.8333 22.1366 33.84 21.853L38.735 20.263C38.909 20.4936 39.1154 20.6977 39.348 20.869L43.984 24.238C43.9397 28.3007 42.6512 32.2522 40.292 35.56ZM14.272 35.688C13.9956 35.6047 13.7087 35.5616 13.42 35.56H7.70801C5.34602 32.2531 4.05466 28.3015 4.00801 24.238L8.64501 20.868C8.87697 20.6983 9.0834 20.4963 9.25801 20.268L14.152 21.858C14.1588 22.1419 14.2059 22.4234 14.292 22.694L16.909 30.747C16.9998 31.0235 17.1306 31.2853 17.297 31.524L14.272 35.688ZM6.56201 14.237L7.83001 18.137C7.89465 18.3375 7.89488 18.5533 7.83067 18.754C7.76647 18.9547 7.64105 19.1302 7.47201 19.256L4.14801 21.667C4.45273 19.0549 5.27328 16.5294 6.56201 14.237V14.237ZM18.815 30.125L16.2 22.071C16.1348 21.8701 16.135 21.6537 16.2003 21.4529C16.2657 21.252 16.393 21.077 16.564 20.953L23.414 15.976C23.5849 15.8518 23.7907 15.7849 24.002 15.7849C24.2133 15.7849 24.4191 15.8518 24.59 15.976L31.44 20.953C31.611 21.077 31.7383 21.252 31.8037 21.4529C31.8691 21.6537 31.8692 21.8701 31.804 22.071L29.187 30.125C29.1216 30.3257 28.9944 30.5005 28.8235 30.6244C28.6527 30.7483 28.4471 30.8151 28.236 30.815H19.766C19.555 30.8151 19.3493 30.7483 19.1785 30.6244C19.0077 30.5005 18.8804 30.3257 18.815 30.125ZM40.529 19.252C40.3594 19.1258 40.2336 18.9495 40.1694 18.7481C40.1052 18.5466 40.1058 18.3301 40.171 18.129L41.438 14.237C42.7267 16.5294 43.5473 19.0549 43.852 21.667L40.529 19.252ZM40.029 12.094L38.268 17.507C38.1783 17.7824 38.1294 18.0694 38.123 18.359L33.232 19.948C33.0564 19.7141 32.8472 19.5075 32.611 19.335L25.761 14.357C25.5268 14.1878 25.2695 14.0531 24.997 13.957V8.823C25.2707 8.7287 25.5296 8.59605 25.766 8.429L30.389 5.066C34.2419 6.37614 37.6051 8.8273 40.032 12.094H40.029ZM27.92 4.391L24.6 6.808C24.4272 6.93346 24.2191 7.00103 24.0055 7.00103C23.7919 7.00103 23.5838 6.93346 23.411 6.808L20.08 4.391C22.6673 3.86968 25.3327 3.86968 27.92 4.391V4.391ZM17.608 5.066L22.237 8.433C22.4714 8.59905 22.7283 8.73072 23 8.824V13.961C22.7275 14.0571 22.4702 14.1918 22.236 14.361L15.386 19.339C15.1499 19.5115 14.9406 19.7181 14.765 19.952L9.87501 18.363C9.86807 18.0745 9.81923 17.7885 9.73001 17.514L7.96801 12.094C10.3941 8.82779 13.7562 6.37668 17.608 5.066V5.066ZM9.34101 37.56H13.42C13.6306 37.5603 13.8357 37.6271 14.0061 37.7508C14.1765 37.8745 14.3035 38.0489 14.369 38.249L15.631 42.141C13.2557 41.0387 11.1189 39.4825 9.34101 37.56ZM18.041 43.093L16.27 37.628C16.1787 37.3576 16.0498 37.1014 15.887 36.867L18.923 32.689C19.1966 32.771 19.4804 32.8135 19.766 32.815H28.234C28.5196 32.8135 28.8035 32.771 29.077 32.689L32.113 36.868C31.9497 37.1033 31.8204 37.3605 31.729 37.632L29.957 43.093C26.0777 44.3023 21.9223 44.3023 18.043 43.093H18.041ZM32.367 42.141L33.628 38.253C33.6929 38.052 33.8197 37.8766 33.9904 37.7521C34.1611 37.6276 34.3668 37.5604 34.578 37.56H38.657C36.8797 39.4823 34.7436 41.0385 32.369 42.141H32.367Z" fill="black"/>
</svg>
